<?xml version="1.0" encoding="UTF-8"?>
<svg version="1.1" xmlns="http://www.w3.org/2000/svg" width="512" height="512">
<path d="M0 0 C0.78084961 0.19335938 1.56169922 0.38671875 2.36621094 0.5859375 C47.07912742 12.04262784 83.27788132 39.77038841 107.125 79.125 C119.8244012 100.68675136 128.04290807 126.93848979 128.203125 152.0234375 C128.21018463 152.76263931 128.21724426 153.50184113 128.22451782 154.26344299 C128.44939893 184.70966883 128.44939893 184.70966883 125 198 C124.69400879 199.2362915 124.69400879 199.2362915 124.38183594 200.49755859 C121.3612576 212.5205156 117.47200469 223.87695934 112 235 C111.69336426 235.63099609 111.38672852 236.26199219 111.07080078 236.91210938 C99.57635116 260.29428683 81.82621998 278.47822761 63.55444336 296.7043457 C61.71791527 298.5435894 59.88181171 300.38325707 58.0460968 302.22331238 C53.60854966 306.6696803 49.16570147 311.11071308 44.72082799 315.54975591 C41.10529721 319.16074278 37.49175621 322.77370998 33.87957954 326.38805199 C33.36261346 326.90532454 32.84564738 327.42259708 32.31301566 327.95554456 C31.26237668 329.00682307 30.21174215 330.05810603 29.16111202 331.10939338 C19.34626925 340.92991755 9.52534401 350.74434046 -0.29772782 360.55663248 C-8.70562693 368.95559009 -17.10825786 377.35978826 -25.50708008 385.76782227 C-35.29244608 395.56391599 -45.08107969 405.35672573 -54.87487501 415.14439267 C-55.92105259 416.18993324 -56.96722604 417.23547795 -58.01339531 418.28102684 C-58.52796035 418.79528333 -59.0425254 419.30953983 -59.57268332 419.83937985 C-63.17927235 423.44425003 -66.78355208 427.05141902 -70.38691902 430.65950966 C-75.24383188 435.52265037 -80.10608127 440.38040176 -84.9718647 445.23466682 C-86.75086695 447.01103658 -88.52819179 448.78908814 -90.30366135 450.5689888 C-98.87673892 459.16147952 -107.33299947 467.62621288 -117 475 C-117.58299394 475.46457768 -118.16598787 475.92915537 -118.76664829 476.40781116 C-143.6893589 496.1470853 -177.09043919 508.99916975 -209.0234375 509.203125 C-209.76263931 509.21018463 -210.50184113 509.21724426 -211.26344299 509.22451782 C-241.70966883 509.44939893 -241.70966883 509.44939893 -255 506 C-256.2362915 505.69400879 -256.2362915 505.69400879 -257.49755859 505.38183594 C-269.5494799 502.35398078 -280.80103677 498.35976725 -292 493 C-293.01964844 492.54109375 -294.03929687 492.0821875 -295.08984375 491.609375 C-309.61299675 484.82540555 -322.22946374 474.75503901 -334 464 C-334.81984375 463.25234375 -335.6396875 462.5046875 -336.484375 461.734375 C-347.61369847 451.07863976 -356.3526271 438.30402176 -364 425 C-364.35690918 424.37963867 -364.71381836 423.75927734 -365.08154297 423.12011719 C-376.70776643 402.46705137 -384.05147117 377.72079863 -384.203125 353.9765625 C-384.21018463 353.23736069 -384.21724426 352.49815887 -384.22451782 351.73655701 C-384.44939893 321.29033117 -384.44939893 321.29033117 -381 308 C-380.79600586 307.17580566 -380.59201172 306.35161133 -380.38183594 305.50244141 C-377.3612576 293.4794844 -373.47200469 282.12304066 -368 271 C-367.69336426 270.36900391 -367.38672852 269.73800781 -367.07080078 269.08789062 C-355.56598849 245.68463327 -337.78978 227.48636563 -319.51025391 209.2355957 C-317.6687501 207.3897358 -315.82766176 205.54346133 -313.98695374 203.69680786 C-309.53644457 199.23365341 -305.08058209 194.77588253 -300.62256958 190.32022396 C-296.99484792 186.69429644 -293.36891979 183.06658446 -289.7442131 179.43764305 C-289.22533783 178.91817259 -288.70646255 178.39870212 -288.17186379 177.86349013 C-287.11728834 176.80770275 -286.06271399 175.75191427 -285.00814073 174.6961247 C-275.15478738 164.83193589 -265.29497293 154.97422535 -255.43314318 145.118512 C-246.43841329 136.1289527 -237.45192969 127.13120125 -228.46929093 118.12956152 C-219.2107358 108.8515743 -209.94657402 99.57921928 -200.67642343 90.31281728 C-195.48602484 85.12432195 -190.29779756 79.93370141 -185.11546707 74.73714638 C-180.24193654 69.8503724 -175.36050808 64.97160605 -170.47385979 60.09794998 C-168.69040291 58.31684591 -166.90945591 56.5332242 -165.13133049 54.74679756 C-140.32235557 29.83044206 -112.67074203 9.59264817 -78 1 C-77.18289551 0.79262207 -76.36579102 0.58524414 -75.52392578 0.37158203 C-52.04518634 -5.31274436 -23.49498212 -5.91932 0 0 Z " fill="#E0DFDF" transform="translate(384,3)"/>
<path d="M0 0 C7.17565405 5.75763076 13.78376367 11.65170431 19.53515625 18.85546875 C19.93460449 19.35369141 20.33405273 19.85191406 20.74560547 20.36523438 C44.24230221 50.02142855 54.0937947 85.65630197 50.0390625 123.2890625 C46.95396378 146.45636376 37.81820528 173.48046082 20.53515625 189.85546875 C17.65264642 187.09646791 14.78675804 184.32136771 11.93530273 181.53027344 C10.9628552 180.5829852 9.9859696 179.64023096 9.00463867 178.70214844 C7.59569308 177.35377967 6.20381252 175.98764982 4.8125 174.62109375 C3.96937256 173.80415039 3.12624512 172.98720703 2.25756836 172.14550781 C0.53515625 169.85546875 0.53515625 169.85546875 0.65405273 167.75463867 C1.76311245 165.36412177 3.09506564 163.12911456 4.46850586 160.88232422 C18.72171662 137.38686554 23.8940448 108.04793613 17.37158203 81.20117188 C12.73454291 63.81129688 4.59266861 48.24117524 -7.46484375 34.85546875 C-8.51091797 33.68564453 -8.51091797 33.68564453 -9.578125 32.4921875 C-27.78880737 13.21616357 -54.81573136 2.26545688 -81.03393555 1.39746094 C-114.27588573 0.94067293 -140.00371308 14.02735148 -163.41191721 36.7451117 C-168.82800463 42.05372837 -174.19235621 47.41428404 -179.55908203 52.77270508 C-181.35723199 54.56457754 -183.15556683 56.35626448 -184.95407104 58.14778137 C-190.3122701 63.48690557 -195.66629202 68.83020317 -201.01942426 74.1744068 C-203.04218042 76.19364147 -205.06524773 78.21256424 -207.08832965 80.23147253 C-216.0291746 89.15388007 -224.96867553 98.0776317 -233.90416145 107.00540638 C-236.08079196 109.18012762 -238.25742805 111.35484327 -240.43408203 113.52954102 C-240.97494603 114.06992127 -241.51581002 114.61030153 -242.07306384 115.16705694 C-250.84023817 123.92592571 -259.61590553 132.67623335 -268.39513697 141.42301527 C-277.44093835 150.43565742 -286.47910795 159.45589677 -295.50993907 168.48353976 C-300.56774057 173.53918609 -305.62871654 178.59155811 -310.69827652 183.63541603 C-315.4665423 188.37955922 -320.22431929 193.13398127 -324.97542191 197.8953228 C-326.71251581 199.63290983 -328.45298769 201.36712801 -330.19721222 203.09755707 C-341.72751801 214.54180388 -352.80012427 226.04985587 -359.83984375 240.91796875 C-360.16235107 241.58296387 -360.4848584 242.24795898 -360.81713867 242.93310547 C-363.70812167 249.06061311 -365.79304747 255.28942829 -367.46484375 261.85546875 C-367.76261719 262.89316406 -368.06039062 263.93085938 -368.3671875 265 C-375.27062785 291.81843419 -368.90698671 320.25555234 -355.21484375 343.79296875 C-350.59439111 351.3455927 -344.74600577 357.66237069 -338.46484375 363.85546875 C-337.72621094 364.60441406 -336.98757813 365.35335938 -336.2265625 366.125 C-316.3598822 385.09375125 -288.34102345 392.47160634 -261.57421875 392.1328125 C-227.76821586 391.06909826 -203.06126425 372.82464583 -180.1472168 349.76489258 C-178.87480993 348.49191985 -177.60195912 347.21939074 -176.32870483 345.94726562 C-172.9139365 342.533065 -169.50531747 339.11278708 -166.09786963 335.69128251 C-162.52076501 332.10157235 -158.93789655 328.5176239 -155.35566711 324.93302917 C-148.59116062 318.16233653 -141.83176323 311.38656755 -135.07424146 304.60890454 C-127.37312376 296.88533808 -119.66624391 289.1675321 -111.95890367 281.45017588 C-96.1211853 265.59162048 -80.29062269 249.7259383 -64.46484375 233.85546875 C-61.04001668 235.47322992 -58.80793853 237.27890119 -56.13671875 239.98828125 C-55.3375 240.79394531 -54.53828125 241.59960938 -53.71484375 242.4296875 C-52.88984375 243.27144531 -52.06484375 244.11320312 -51.21484375 244.98046875 C-50.374375 245.82996094 -49.53390625 246.67945313 -48.66796875 247.5546875 C-46.59568692 249.65051798 -44.52821982 251.75087588 -42.46484375 253.85546875 C-48.18130172 260.83052393 -54.57091164 267.12467505 -60.93334961 273.50097656 C-62.20070293 274.77460418 -63.46786914 276.04841802 -64.73486328 277.32240295 C-68.87956347 281.48803474 -73.02949842 285.64843172 -77.1796875 289.80859375 C-78.61511485 291.24807303 -80.0505096 292.68758482 -81.48587227 294.1271286 C-88.23385496 300.89414069 -94.98423239 307.65875266 -101.73756117 314.42042947 C-109.5003939 322.19301994 -117.25488847 329.97380555 -125.00234884 337.76171803 C-131.0125429 343.80220007 -137.03051457 349.83486379 -143.05422121 355.86187053 C-146.64162809 359.45161376 -150.22573927 363.04449952 -153.80161858 366.64572906 C-157.17203484 370.03965348 -160.55212162 373.42365578 -163.93939972 376.80074883 C-165.17021918 378.03107827 -166.39772063 379.26473908 -167.62133217 380.50223732 C-194.90185739 408.07455891 -228.74911254 422.92997069 -267.71484375 423.16796875 C-279.40364924 423.19018612 -290.19620521 421.92758638 -301.46484375 418.85546875 C-302.13515625 418.6735498 -302.80546875 418.49163086 -303.49609375 418.30419922 C-323.06398722 412.78593491 -339.95394471 402.84683089 -355.46484375 389.85546875 C-356.17511719 389.26894531 -356.88539063 388.68242187 -357.6171875 388.078125 C-382.47463329 367.03756148 -397.8608192 334.52601131 -401.0625 302.42578125 C-404.04485487 265.03010661 -394.54468159 230.45369932 -370.47823143 201.27835274 C-363.65966387 193.37491033 -356.05099074 186.14646906 -348.6730957 178.77319336 C-346.76253502 176.85772071 -344.85343766 174.9407918 -342.94422913 173.02397156 C-338.3149389 168.3781629 -333.68019563 163.73783274 -329.04319916 159.09971683 C-325.27017954 155.32574264 -321.49875209 151.55018459 -317.72841454 147.77353096 C-307.01091891 137.03845011 -296.28926942 126.30754304 -285.56222568 115.58200305 C-284.9855413 115.00539859 -284.40885693 114.42879412 -283.81469727 113.8347168 C-283.23729863 113.25739992 -282.65989999 112.68008305 -282.06500443 112.08527172 C-272.70979298 102.73087302 -263.36459924 93.36653713 -254.02390335 83.99764615 C-244.40570063 74.35064268 -234.77998498 64.71119134 -225.14650887 55.07943922 C-219.74905794 49.68264957 -214.35466855 44.28288288 -208.96837807 38.87495232 C-204.38287809 34.27114585 -199.79037395 29.67446639 -195.18896518 25.08655827 C-192.84694098 22.75101556 -190.50930939 20.41150534 -188.17817688 18.06506348 C-178.5054471 8.33297116 -169.06136797 -0.73311165 -157.46484375 -8.14453125 C-156.28440979 -8.90414705 -156.28440979 -8.90414705 -155.08012867 -9.67910862 C-153.31795744 -10.7886626 -151.53785382 -11.82610077 -149.71484375 -12.83203125 C-149.06056396 -13.19449951 -148.40628418 -13.55696777 -147.73217773 -13.93041992 C-100.44677802 -39.36774332 -41.87080677 -32.92747648 0 0 Z " fill="#F26542" transform="translate(431.46484375,59.14453125)"/>
<path d="M0 0 C15.83028776 11.65309473 27.30104417 29.21837775 30.89306641 48.65869141 C33.48260249 67.44706824 30.22558777 87.11880194 19.18164062 102.75244141 C14.0677728 98.41198775 9.01164955 94.02933264 4.11914062 89.43994141 C3.41853516 88.82699219 2.71792969 88.21404297 1.99609375 87.58251953 C0.02755355 85.70744118 -1.49934535 84.13276054 -2.81835938 81.75244141 C-2.82642635 78.4722093 -1.95818707 75.80047785 -0.81835938 72.75244141 C1.84910545 60.21535672 0.11267913 47.6032177 -6.81835938 36.75244141 C-15.04084489 26.00358153 -23.57875937 20.61588978 -36.81835938 17.75244141 C-50.13210192 16.21624034 -62.31669036 19.4915096 -72.81835938 27.75244141 C-79.24065079 33.40861118 -85.19655404 39.58310884 -91.22973633 45.64624023 C-93.07299132 47.48406919 -94.91709488 49.3210474 -96.76197815 51.15724182 C-101.23407128 55.61162995 -105.69538254 60.07666476 -110.15280972 64.54572395 C-113.77786227 68.17984118 -117.40683803 71.80999752 -121.0385952 75.43741417 C-121.55714039 75.95534642 -122.07568557 76.47327868 -122.60994425 77.00690585 C-123.6636401 78.0593227 -124.71734487 79.11173061 -125.77105846 80.1641297 C-135.63060937 90.0122986 -145.47790541 99.8726477 -155.32099398 109.73726668 C-163.75370012 118.18784693 -172.19684553 126.62787788 -180.64770508 135.06030273 C-190.48060945 144.87176741 -200.30694928 154.68973136 -210.12300652 164.51805323 C-211.17106347 165.56738427 -212.21912872 166.61670701 -213.26720238 167.66602135 C-213.78276597 168.18220204 -214.29832956 168.69838274 -214.8295163 169.23020527 C-218.45045371 172.8545859 -222.07599005 176.47432595 -225.70336342 180.09226418 C-230.59091743 184.96738324 -235.46767825 189.85308496 -240.3374691 194.74594688 C-242.12302802 196.53678141 -243.91197475 198.32424566 -245.70458984 200.10801697 C-248.15700336 202.54944721 -250.59668249 205.002954 -253.03364563 207.45979309 C-253.74016354 208.15738812 -254.44668146 208.85498314 -255.17460901 209.57371742 C-264.74807921 219.29848241 -269.66502271 230.10020208 -270.19335938 243.81494141 C-269.68449951 258.03988754 -264.04310385 269.12440915 -253.81835938 278.75244141 C-244.6194988 286.04123957 -232.45626273 289.07941344 -220.81835938 287.75244141 C-201.87886245 284.35367603 -191.2726589 272.36276951 -178.20849609 259.25610352 C-176.97572476 258.02304946 -175.74273191 256.79021684 -174.50953674 255.55758667 C-171.19187721 252.24021181 -167.87729073 248.91978229 -164.56328344 245.59875941 C-161.08844005 242.11762721 -157.61072844 238.63936272 -154.1333313 235.16078186 C-147.56199069 228.58634414 -140.99320141 222.00936348 -134.42534459 215.43144566 C-126.94236045 207.93724985 -119.45650657 200.44592336 -111.9704206 192.95482624 C-96.58322442 177.55720239 -81.19960209 162.15601224 -65.81835938 146.75244141 C-64.69188929 147.71306381 -63.56611127 148.6744978 -62.44062805 149.63627625 C-61.81363667 150.17158809 -61.1866453 150.70689993 -60.54065418 151.25843334 C-58.73840647 152.82179671 -57.02864259 154.44059958 -55.36132812 156.14697266 C-54.80638672 156.70964844 -54.25144531 157.27232422 -53.6796875 157.85205078 C-52.85114258 158.69993164 -52.85114258 158.69993164 -52.00585938 159.56494141 C-48.2841101 163.64243458 -48.2841101 163.64243458 -43.81835938 166.75244141 C-45.41115319 170.62824885 -47.89789571 173.08616071 -50.8374939 176.03227234 C-51.35343066 176.55203465 -51.86936742 177.07179696 -52.40093863 177.60730964 C-54.13088119 179.3475697 -55.86788832 181.08059933 -57.60498047 182.8137207 C-58.84728127 184.06036901 -60.08916351 185.30743454 -61.33065796 186.55488586 C-64.7066133 189.94424735 -68.08896378 193.32715787 -71.47289228 196.70855689 C-74.30213656 199.5367312 -77.12839773 202.36787734 -79.9547106 205.19898063 C-86.6310267 211.88640037 -93.31266757 218.56846726 -99.99755859 225.24731445 C-106.87483036 232.11856329 -113.74291459 238.99889688 -120.60649431 245.88382024 C-126.51036097 251.80536462 -132.42008553 257.72101859 -138.33441985 263.63210803 C-141.86153287 267.15741574 -145.3864307 270.68486553 -148.90565109 274.21805382 C-152.22314606 277.54822077 -155.54796067 280.87090978 -158.8782692 284.18826103 C-160.09170917 285.39935484 -161.30265997 286.61294926 -162.51075745 287.82937241 C-180.3855629 305.81833146 -200.03915303 318.86504277 -226.25585938 319.06494141 C-246.40196223 319.06494141 -264.97096638 311.29311952 -279.40039062 297.21875 C-295.2703478 280.80777156 -301.41603354 260.4427675 -301.09179688 238.15869141 C-300.10737029 210.2828496 -280.55421927 191.02757403 -262.04296875 172.60473633 C-260.25415799 170.81349332 -258.46599321 169.02160502 -256.67842102 167.22912598 C-252.35206533 162.89438649 -248.01885432 158.56660896 -243.68220389 154.24217179 C-238.62057317 149.19425857 -233.56668278 144.13862437 -228.51296085 139.08279542 C-219.4906481 130.05730314 -210.46096586 121.03922 -201.42724609 112.02514648 C-192.6818932 103.29880742 -183.94253608 94.566519 -175.20947266 85.82788086 C-165.67211811 76.28445609 -156.13163303 66.74418218 -146.58557177 57.2094658 C-145.5660652 56.19116639 -144.54655922 55.1728664 -143.52705383 54.15456581 C-143.02557865 53.65369417 -142.52410347 53.15282253 -142.00743207 52.63677296 C-138.49023976 49.12344408 -134.97516884 45.60800144 -131.46086121 42.09178734 C-126.72473745 37.3533088 -121.98315602 32.6203556 -117.23796654 27.89095306 C-115.50209493 26.1593074 -113.76789384 24.4259852 -112.035532 22.69082832 C-96.4887804 7.12280882 -81.792417 -6.89761609 -59.81835938 -12.24755859 C-59.07328125 -12.43833984 -58.32820312 -12.62912109 -57.56054688 -12.82568359 C-37.22053666 -15.95491593 -16.96287013 -11.63805939 0 0 Z " fill="#F26643" transform="translate(390.818359375,103.24755859375)"/>
<path d="M0 0 C0.78084961 0.19335938 1.56169922 0.38671875 2.36621094 0.5859375 C32.37356828 8.2746554 57.47286155 22.94755007 80 44 C78.51346494 47.46629835 76.54277649 49.69022036 73.8671875 52.328125 C73.06152344 53.12734375 72.25585938 53.9265625 71.42578125 54.75 C70.58402344 55.575 69.74226563 56.4 68.875 57.25 C67.60076172 58.51070312 67.60076172 58.51070312 66.30078125 59.796875 C64.20495077 61.86915683 62.10459287 63.93662393 60 66 C56.02818305 64.51128595 53.66069666 62.98243883 50.625 60 C24.43095511 35.89528808 -10.77669633 26.883046 -45.64453125 27.6484375 C-54.68027517 28.02645658 -63.28909099 29.62996283 -72 32 C-72.67562988 32.18191895 -73.35125977 32.36383789 -74.04736328 32.55126953 C-84.31632413 35.41899281 -93.66617781 39.94657361 -103 45 C-103.91523438 45.49371094 -104.83046875 45.98742188 -105.7734375 46.49609375 C-121.02172013 55.20587331 -132.99983733 67.56243023 -145.29345703 79.8894043 C-147.20793011 81.79816599 -149.12297296 83.70634052 -151.03869629 85.61384583 C-155.67590237 90.23396581 -160.30501295 94.86211312 -164.93105067 99.49341311 C-168.69579948 103.2622239 -172.46331318 107.02824985 -176.23275375 110.79236794 C-176.77178724 111.330653 -177.31082072 111.86893806 -177.86618855 112.42353478 C-178.96167424 113.5174888 -180.05716326 114.61143948 -181.15265559 115.70538685 C-191.39645924 125.93550239 -201.63071226 136.1751302 -211.86192213 146.41783861 C-221.19482723 155.76067271 -230.53911635 165.09202367 -239.88894083 174.41792312 C-249.52139847 184.02592057 -259.14636388 193.64136422 -268.7632817 203.26491672 C-274.14972786 208.65483969 -279.53893152 214.04192901 -284.9359169 219.42130089 C-289.52986137 224.00043648 -294.11655458 228.58669354 -298.69443549 233.18189039 C-301.02406677 235.51996316 -303.35762382 237.85369158 -305.6981163 240.18091965 C-317.99144393 252.4099257 -329.93994434 264.78545925 -337.8125 280.4375 C-338.353302 281.4903418 -338.353302 281.4903418 -338.9050293 282.56445312 C-355.25453039 315.1395126 -357.68615888 352.66866072 -346.375 387.3125 C-339.49909046 407.21009972 -328.75653209 423.20984089 -315 439 C-316.48653506 442.46629835 -318.45722351 444.69022036 -321.1328125 447.328125 C-321.93847656 448.12734375 -322.74414062 448.9265625 -323.57421875 449.75 C-324.83685547 450.9875 -324.83685547 450.9875 -326.125 452.25 C-326.97449219 453.09046875 -327.82398438 453.9309375 -328.69921875 454.796875 C-330.79504923 456.86915683 -332.89540713 458.93662393 -335 461 C-354.18439462 451.97498914 -368.11900792 419.78075705 -375 401 C-377.32577288 394.41633327 -379.30019503 387.77164804 -381 381 C-381.17934082 380.29101562 -381.35868164 379.58203125 -381.54345703 378.8515625 C-386.70031809 357.13846328 -386.5932829 329.55058999 -381 308 C-380.79600586 307.17580566 -380.59201172 306.35161133 -380.38183594 305.50244141 C-377.3612576 293.4794844 -373.47200469 282.12304066 -368 271 C-367.69336426 270.36900391 -367.38672852 269.73800781 -367.07080078 269.08789062 C-355.56598849 245.68463327 -337.78978 227.48636563 -319.51025391 209.2355957 C-317.6687501 207.3897358 -315.82766176 205.54346133 -313.98695374 203.69680786 C-309.53644457 199.23365341 -305.08058209 194.77588253 -300.62256958 190.32022396 C-296.99484792 186.69429644 -293.36891979 183.06658446 -289.7442131 179.43764305 C-289.22533783 178.91817259 -288.70646255 178.39870212 -288.17186379 177.86349013 C-287.11728834 176.80770275 -286.06271399 175.75191427 -285.00814073 174.6961247 C-275.15478738 164.83193589 -265.29497293 154.97422535 -255.43314318 145.118512 C-246.43841329 136.1289527 -237.45192969 127.13120125 -228.46929093 118.12956152 C-219.2107358 108.8515743 -209.94657402 99.57921928 -200.67642343 90.31281728 C-195.48602484 85.12432195 -190.29779756 79.93370141 -185.11546707 74.73714638 C-180.24193654 69.8503724 -175.36050808 64.97160605 -170.47385979 60.09794998 C-168.69040291 58.31684591 -166.90945591 56.5332242 -165.13133049 54.74679756 C-140.32235557 29.83044206 -112.67074203 9.59264817 -78 1 C-77.18289551 0.79262207 -76.36579102 0.58524414 -75.52392578 0.37158203 C-52.04518634 -5.31274436 -23.49498212 -5.91932 0 0 Z " fill="#F1F1F1" transform="translate(384,3)"/>
<path d="M0 0 C3.76559849 3.04106579 7.42739357 6.11841972 10.796875 9.59765625 C8.49597322 14.8397427 4.40195293 18.40032691 0.421875 22.41015625 C-0.34640625 23.21130859 -1.1146875 24.01246094 -1.90625 24.83789062 C-2.65132813 25.59005859 -3.39640625 26.34222656 -4.1640625 27.1171875 C-5.18185791 28.15516479 -5.18185791 28.15516479 -6.22021484 29.21411133 C-8.203125 30.59765625 -8.203125 30.59765625 -10.31152344 30.4152832 C-12.89851353 29.29708111 -14.86444424 27.71534111 -17.078125 25.97265625 C-34.74489467 12.91562648 -54.6233521 7.91567656 -76.37402344 10.89501953 C-103.93838125 15.87322027 -122.70065972 37.94875447 -141.56298828 56.78051758 C-143.28232193 58.49357291 -145.00184007 60.20644309 -146.7215271 61.91914368 C-151.84241853 67.02096943 -156.9591421 72.12696113 -162.07497197 77.23386076 C-164.0084907 79.16385704 -165.94231999 81.09354196 -167.87616358 83.0232127 C-176.42408643 91.55269948 -184.97066573 100.08352988 -193.51323128 108.61838245 C-195.59360932 110.69685127 -197.67399298 112.77531447 -199.75439453 114.85375977 C-200.27133361 115.3702151 -200.78827269 115.88667044 -201.32087658 116.41877594 C-209.70006001 124.78965396 -218.08773517 133.15196897 -226.47897495 141.51075951 C-235.12701561 150.12563371 -243.76741678 158.74811123 -252.40048397 167.3779909 C-257.23472069 172.21007319 -262.07212445 177.03888395 -266.91812515 181.85917091 C-271.47590045 186.39356409 -276.02393651 190.93750922 -280.5649147 195.48872185 C-282.22460614 197.14890613 -283.88767149 198.80572607 -285.55449677 200.45874786 C-297.52640912 212.33710585 -309.40219496 224.3859316 -315.203125 240.59765625 C-315.59371094 241.67917969 -315.98429687 242.76070313 -316.38671875 243.875 C-320.86434731 258.144536 -321.21036342 274.42053541 -316.203125 288.59765625 C-315.85121094 289.66113281 -315.49929688 290.72460938 -315.13671875 291.8203125 C-311.94814207 300.81778134 -307.61264837 308.91346361 -301.203125 316.03515625 C-299.203125 318.59765625 -299.203125 318.59765625 -299.32592773 320.48730469 C-300.48049129 323.26494103 -302.09027838 324.82284138 -304.23828125 326.92578125 C-305.04716797 327.725 -305.85605469 328.52421875 -306.68945312 329.34765625 C-307.9646582 330.58515625 -307.9646582 330.58515625 -309.265625 331.84765625 C-310.11962891 332.688125 -310.97363281 333.52859375 -311.85351562 334.39453125 C-313.96347912 336.46913222 -316.08012208 338.53641457 -318.203125 340.59765625 C-332.64872139 333.72173937 -340.02478155 313.68954169 -345.203125 299.59765625 C-345.55246094 298.79457031 -345.90179688 297.99148438 -346.26171875 297.1640625 C-354.94645218 273.48825395 -351.25346354 244.40279828 -340.92700195 221.95092773 C-332.08854499 203.75076201 -318.08462354 190.17949715 -303.9621582 176.06616211 C-302.11125148 174.2092631 -300.26075281 172.35195729 -298.41062927 170.49427795 C-293.92571761 165.99285222 -289.43535756 161.49690113 -284.94274173 157.00316565 C-281.28699907 153.34646821 -277.63284909 149.68818663 -273.97978783 146.0288105 C-263.59431668 135.62575538 -253.20469333 125.22687301 -242.80967448 114.8333581 C-242.25091208 114.27467561 -241.69214967 113.71599312 -241.11645508 113.14038086 C-240.55700013 112.58100767 -239.99754518 112.02163449 -239.42113706 111.4453106 C-230.35691875 102.38190502 -221.30271934 93.30856365 -212.25301705 84.23066609 C-202.93313956 74.88198376 -193.60574556 65.5408584 -184.27059239 56.20742899 C-179.04081504 50.97831278 -173.81409731 45.74622415 -168.59548378 40.50596428 C-163.68567251 35.57591605 -158.76544784 30.6564675 -153.83826637 25.74378014 C-152.03941759 23.94701205 -150.24392777 22.14687332 -148.45220566 20.3429985 C-136.83836521 8.65554881 -125.22281909 -2.6362616 -110.140625 -9.77734375 C-109.47562988 -10.09985107 -108.81063477 -10.4223584 -108.12548828 -10.75463867 C-101.99734297 -13.64592252 -95.76862031 -15.72656381 -89.203125 -17.40234375 C-88.18863281 -17.70011719 -87.17414063 -17.99789062 -86.12890625 -18.3046875 C-57.06507626 -25.91246929 -23.69937762 -18.19721584 0 0 Z " fill="#F1F1F0" transform="translate(410.203125,80.40234375)"/>
<path d="M0 0 C3.42482707 1.61776117 5.65690522 3.42343244 8.328125 6.1328125 C9.12734375 6.93847656 9.9265625 7.74414062 10.75 8.57421875 C11.9875 9.83685547 11.9875 9.83685547 13.25 11.125 C14.09046875 11.97449219 14.9309375 12.82398438 15.796875 13.69921875 C17.86915683 15.79504923 19.93662393 17.89540713 22 20 C16.28354203 26.97505518 9.89393211 33.2692063 3.53149414 39.64550781 C2.26414082 40.91913543 0.99697461 42.19294927 -0.27001953 43.4669342 C-4.41471972 47.63256599 -8.56465467 51.79296297 -12.71484375 55.953125 C-14.1502711 57.39260428 -15.58566585 58.83211607 -17.02102852 60.27165985 C-23.76901121 67.03867194 -30.51938864 73.80328391 -37.27271742 80.56496072 C-45.03555015 88.33755119 -52.79004472 96.1183368 -60.53750509 103.90624928 C-66.54769915 109.94673132 -72.56567082 115.97939504 -78.58937746 122.00640178 C-82.17678434 125.59614501 -85.76089552 129.18903077 -89.33677483 132.79026031 C-92.70719109 136.18418473 -96.08727787 139.56818703 -99.47455597 142.94528008 C-100.70537543 144.17560952 -101.93287688 145.40927033 -103.15648842 146.64676857 C-130.43701364 174.21909016 -164.28426879 189.07450194 -203.25 189.3125 C-214.93880549 189.33471737 -225.73136146 188.07211763 -237 185 C-238.00546875 184.72712158 -238.00546875 184.72712158 -239.03125 184.44873047 C-261.12832661 178.21722121 -282.01053428 166.48771001 -297 149 C-287.1 139.1 -287.1 139.1 -277 129 C-273.396763 130.8016185 -271.22745835 132.44104211 -268.25 135.0625 C-246.49812573 153.0730519 -218.88096186 160.28139214 -191 158 C-159.55794947 154.22765905 -137.40789263 137.77309161 -115.68237305 115.90942383 C-114.40996618 114.6364511 -113.13711537 113.36392199 -111.86386108 112.09179688 C-108.44909275 108.67759625 -105.04047372 105.25731833 -101.63302588 101.83581376 C-98.05592126 98.2461036 -94.4730528 94.66215515 -90.89082336 91.07756042 C-84.12631687 84.30686778 -77.36691948 77.5310988 -70.60939771 70.75343579 C-62.90828001 63.02986933 -55.20140016 55.31206335 -47.49405992 47.59470713 C-31.65634155 31.73615173 -15.82577894 15.87046955 0 0 Z " fill="#F04A39" transform="translate(367,293)"/>
<path d="M0 0 C1.70703125 1.3671875 1.70703125 1.3671875 3.70703125 3.3671875 C3.45197651 7.21886897 1.33675195 9.08634206 -1.328125 11.6953125 C-2.13701172 12.49453125 -2.94589844 13.29375 -3.77929688 14.1171875 C-4.62943359 14.9421875 -5.47957031 15.7671875 -6.35546875 16.6171875 C-7.63647461 17.87789062 -7.63647461 17.87789062 -8.94335938 19.1640625 C-11.05332287 21.23866347 -13.16996583 23.30594582 -15.29296875 25.3671875 C-15.90132568 25.15642578 -16.50968262 24.94566406 -17.13647461 24.72851562 C-17.93964111 24.45458984 -18.74280762 24.18066406 -19.5703125 23.8984375 C-20.36429443 23.62580078 -21.15827637 23.35316406 -21.97631836 23.07226562 C-25.92185317 21.8714326 -29.29124085 21.39335466 -33.10397547 23.24823523 C-38.42046254 26.53792395 -42.71938335 30.37173026 -47.10627747 34.80627441 C-47.85011914 35.54614169 -48.59396082 36.28600896 -49.36034316 37.04829645 C-51.83699375 39.51536578 -54.30283333 41.99295698 -56.76879883 44.47070312 C-58.54771125 46.24718628 -60.32726901 48.0230234 -62.10742188 49.79826355 C-66.4298226 54.11224626 -70.74520872 58.43313726 -75.05730865 62.75741327 C-80.08184134 67.79560211 -85.11403079 72.82611445 -90.1464512 77.85642248 C-99.12499065 86.8317763 -108.09609712 95.81452335 -117.06323242 104.80126953 C-125.76092431 113.51797797 -134.46456782 122.22868823 -143.17456055 130.93310547 C-152.6673547 140.41984098 -162.15702011 149.9096848 -171.64110106 159.40513182 C-172.65236739 160.4176054 -173.66363435 161.43007835 -174.67490196 162.44255066 C-175.17242388 162.94067612 -175.6699458 163.43880158 -176.18254415 163.95202175 C-179.68663576 167.45999057 -183.1928576 170.96582154 -186.69983864 174.47090149 C-191.41853161 179.18725016 -196.13174054 183.90901443 -200.84133148 188.63445473 C-202.57183729 190.36920786 -204.30404825 192.10226191 -206.03806877 193.83350182 C-208.40156104 196.19377825 -210.75882509 198.56010349 -213.11457825 200.92810059 C-213.80464441 201.61438742 -214.49471057 202.30067426 -215.20568782 203.00775766 C-221.27827934 209.07239448 -221.27827934 209.07239448 -223.66796875 217.1171875 C-223.55955479 220.3634553 -222.83685341 223.0720262 -221.76953125 226.1328125 C-221.49447754 226.92977539 -221.21942383 227.72673828 -220.93603516 228.54785156 C-220.72382324 229.14823242 -220.51161133 229.74861328 -220.29296875 230.3671875 C-223.35596182 233.5747873 -226.44642367 236.75449287 -229.54296875 239.9296875 C-230.41566406 240.84427734 -231.28835937 241.75886719 -232.1875 242.70117188 C-233.03183594 243.56162109 -233.87617188 244.42207031 -234.74609375 245.30859375 C-235.52114258 246.10982666 -236.29619141 246.91105957 -237.09472656 247.73657227 C-239.29296875 249.3671875 -239.29296875 249.3671875 -241.46362305 249.24389648 C-246.27175619 246.93961167 -249.30130509 240.6154358 -251.375 235.9140625 C-255.38251562 224.30608621 -255.64347954 211.94741009 -251.29296875 200.3671875 C-245.54852634 188.63032808 -235.4312319 179.94304898 -226.30737305 170.86401367 C-224.45969198 169.01090663 -222.61286166 167.15695099 -220.76681519 165.30221558 C-216.28836407 160.80605873 -211.79926501 156.32068429 -207.30614265 151.8391936 C-203.65247945 148.19459479 -200.00277668 144.54607301 -196.35581398 140.89476967 C-195.57475256 140.11278885 -195.57475256 140.11278885 -194.77791211 139.31501043 C-193.71985827 138.25567758 -192.66181335 137.19633581 -191.60377727 136.13698522 C-181.70267343 126.22449916 -171.7893888 116.32426815 -161.87183491 106.42824433 C-153.37577299 97.95005651 -144.89026003 89.46142915 -136.41235352 80.96508789 C-126.54815101 71.07944603 -116.67744948 61.20036809 -106.79638988 51.33157331 C-105.74144186 50.27789938 -104.68650214 49.22421715 -103.63157082 48.1705265 C-103.11262601 47.6521988 -102.59368121 47.1338711 -102.0590108 46.59983649 C-98.4150935 42.95936251 -94.77581688 39.31428927 -91.1383419 35.66737938 C-86.23695799 30.75356097 -81.32499169 25.85053437 -76.40586472 20.95447922 C-74.60535472 19.15924506 -72.80821548 17.36062272 -71.0147686 15.55833244 C-68.56020133 13.09278279 -66.09355723 10.63996441 -63.62358093 8.18986511 C-62.57135197 7.12425182 -62.57135197 7.12425182 -61.49786586 6.03711098 C-44.56336446 -10.63529056 -19.8023243 -14.18125637 0 0 Z " fill="#F1F1F1" transform="translate(374.29296875,128.6328125)"/>
<path d="M0 0 C4.10315235 2.35551339 6.42379296 4.62067026 8.375 8.9375 C9.29521875 15.37903127 7.76954592 19.48688328 4.375 24.9375 C2.09208838 27.75283945 -0.42846846 30.28196966 -3.00630188 32.82673645 C-3.7520707 33.57874523 -4.49783952 34.33075402 -5.2662074 35.10555094 C-7.75700672 37.61225083 -10.26179371 40.10447335 -12.7668457 42.59692383 C-14.55984115 44.39534159 -16.351985 46.19460871 -18.14334106 47.99465942 C-22.4995696 52.36721872 -26.86505799 56.73033808 -31.23525921 61.08892701 C-34.78746689 64.63208746 -38.33573445 68.17914949 -41.88124657 71.72900963 C-42.38657465 72.23495065 -42.89190274 72.74089167 -43.4125438 73.26216423 C-44.43919747 74.29009685 -45.46584219 75.31803842 -46.49247804 76.34598883 C-56.11019736 85.975103 -65.74011903 95.5919385 -75.37428459 105.20459392 C-83.6359641 113.44839803 -91.8870925 121.70264074 -100.13061523 129.96459961 C-109.71131341 139.56671448 -119.29848067 149.16229348 -128.89603108 158.7475664 C-129.9197978 159.77005896 -130.94355618 160.79255986 -131.96730614 161.8150692 C-132.47097338 162.31811934 -132.97464062 162.82116948 -133.49357051 163.33946357 C-137.03817718 166.88062015 -140.57812855 170.42638958 -144.11629677 173.97397804 C-148.87976077 178.7498459 -153.65373339 183.51495994 -158.4349556 188.27305984 C-160.18835376 190.02116744 -161.93835403 191.77269081 -163.68469429 193.5278492 C-166.06825084 195.92232969 -168.46377673 198.30415868 -170.86274719 200.68318176 C-171.55167236 201.38102982 -172.24059753 202.07887787 -172.95039922 202.79787284 C-177.68421119 207.4555931 -182.64925002 211.31722845 -189.625 211.4375 C-194.29178227 211.2290806 -197.43886208 209.27535877 -200.625 205.9375 C-203.37503354 201.23582975 -204.90232464 196.35259505 -203.625 190.9375 C-200.09645314 184.94283 -194.97113171 179.99581628 -190.0723877 175.12419128 C-189.33237156 174.38034961 -188.59235543 173.63650793 -187.82991457 172.87012559 C-185.36593716 170.39588555 -182.89493133 167.92879166 -180.42382812 165.46166992 C-178.64904286 163.68253462 -176.87467511 161.90298275 -175.10069275 160.12304688 C-170.79208093 155.80245534 -166.4787838 151.48659205 -162.16300571 147.1731601 C-158.65521271 143.66715392 -155.14919838 140.1593785 -151.64442444 136.65035439 C-150.89473178 135.89976894 -150.89473178 135.89976894 -150.12989381 135.13402015 C-149.11443924 134.11735378 -148.09898583 133.10068624 -147.08353359 132.08401755 C-137.57573139 122.56535631 -128.06143907 113.05320295 -118.54515439 103.54302321 C-109.8420964 94.8451398 -101.14729267 86.13905802 -92.45632488 77.42909547 C-83.52341241 68.4768097 -74.58495773 59.5300926 -65.64047384 50.58936769 C-60.62238174 45.57318752 -55.60651304 40.55483158 -50.59645081 35.53063011 C-45.88877329 30.80980062 -41.1733394 26.09685783 -36.45254707 21.38913727 C-34.72055281 19.659514 -32.99111938 17.92732206 -31.26443291 16.19239998 C-28.90902411 13.8265675 -26.54458217 11.47014808 -24.1776123 9.1158905 C-23.15357449 8.08079126 -23.15357449 8.08079126 -22.10884905 7.02478093 C-15.32490971 0.31738087 -9.65145283 -2.82887411 0 0 Z " fill="#F26643" transform="translate(353.625,151.0625)"/>
<path d="M0 0 C1.12647009 0.9606224 2.2522481 1.92205639 3.37773132 2.88383484 C4.0047227 3.41914668 4.63171408 3.95445852 5.27770519 4.50599194 C7.0799529 6.0693553 8.78971679 7.68815817 10.45703125 9.39453125 C11.01197266 9.95720703 11.56691406 10.51988281 12.13867188 11.09960938 C12.9672168 11.94749023 12.9672168 11.94749023 13.8125 12.8125 C17.53424928 16.88999317 17.53424928 16.88999317 22 20 C20.40720618 23.87580744 17.92046367 26.33371931 14.98086548 29.27983093 C14.46492872 29.79959324 13.94899195 30.31935555 13.41742074 30.85486823 C11.68747819 32.59512829 9.95047105 34.32815792 8.21337891 36.0612793 C6.97107811 37.30792761 5.72919586 38.55499313 4.48770142 39.80244446 C1.11174607 43.19180594 -2.2706044 46.57471647 -5.65453291 49.95611548 C-8.48377718 52.7842898 -11.31003835 55.61543593 -14.13635123 58.44653922 C-20.81266732 65.13395897 -27.49430819 71.81602585 -34.17919922 78.49487305 C-41.05647098 85.36612189 -47.92455522 92.24645548 -54.78813493 99.13137883 C-60.6920016 105.05292321 -66.60172616 110.96857718 -72.51606047 116.87966663 C-76.04317349 120.40497433 -79.56807133 123.93242413 -83.08729172 127.46561241 C-86.40478668 130.79577936 -89.72960129 134.11846837 -93.05990982 137.43581963 C-94.27334979 138.64691343 -95.4843006 139.86050786 -96.69239807 141.076931 C-114.56720353 159.06589005 -134.22079365 172.11260136 -160.4375 172.3125 C-179.90738108 172.3125 -197.56416605 165.04777299 -212 152 C-211.13372181 146.16848889 -206.1762507 142.66389206 -202.1875 138.6875 C-201.36701172 137.83865234 -200.54652344 136.98980469 -199.70117188 136.11523438 C-198.90646484 135.31794922 -198.11175781 134.52066406 -197.29296875 133.69921875 C-196.20278442 132.59839966 -196.20278442 132.59839966 -195.09057617 131.4753418 C-193 130 -193 130 -190.87792969 130.17358398 C-188.36591 131.27904246 -186.29666158 132.78252994 -184.0625 134.375 C-174.47775858 140.5986921 -163.19636495 142.47086913 -151.99609375 140.4609375 C-134.71515604 136.52460375 -124.48938363 124.64227293 -112.39013672 112.50366211 C-111.15736538 111.27060806 -109.92437253 110.03777544 -108.69117737 108.80514526 C-105.37351783 105.4877704 -102.05893135 102.16734088 -98.74492407 98.84631801 C-95.27008068 95.3651858 -91.79236906 91.88692131 -88.31497192 88.40834045 C-81.74363131 81.83390273 -75.17484204 75.25692207 -68.60698521 68.67900425 C-61.12400107 61.18480845 -53.6381472 53.69348196 -46.15206122 46.20238483 C-30.76486505 30.80476098 -15.38124272 15.40357083 0 0 Z " fill="#F04B3B" transform="translate(325,250)"/>
<path d="M0 0 C21.52460633 19.6419877 34.94692281 51.4948274 38 80 C39.50808084 113.69729462 33.56716547 146.41710484 13 174 C11.38922606 175.74173117 9.72382861 177.36674032 8 179 C5.11749017 176.24099916 2.25160179 173.46589896 -0.59985352 170.67480469 C-1.57230105 169.72751645 -2.54918665 168.78476221 -3.53051758 167.84667969 C-4.93946317 166.49831092 -6.33134373 165.13218107 -7.72265625 163.765625 C-8.56578369 162.94868164 -9.40891113 162.13173828 -10.27758789 161.29003906 C-12 159 -12 159 -11.88110352 156.89916992 C-10.7720438 154.50865302 -9.44009061 152.27364581 -8.06665039 150.02685547 C6.18656037 126.53139679 11.35888855 97.19246738 4.83642578 70.34570312 C0.47418468 53.9863787 -6.97033751 39.08278383 -18.1171875 26.3046875 C-19.80844746 24.23447302 -20.86243626 22.39284991 -22 20 C-19.19469153 17.1453424 -16.38292304 14.29722769 -13.56494141 11.45507812 C-12.60675044 10.48681462 -11.65036018 9.51676574 -10.69580078 8.54492188 C-9.3253618 7.1502903 -7.94793633 5.76253479 -6.5703125 4.375 C-5.74289551 3.53710938 -4.91547852 2.69921875 -4.06298828 1.8359375 C-2 0 -2 0 0 0 Z " fill="#F04B3A" transform="translate(444,70)"/>
<path d="M0 0 C2.79356366 3.4382322 3.5413654 6.48435095 3.34396952 10.90899116 C2.10269591 18.45475877 -3.15048407 23.72551587 -8.38130188 28.88923645 C-9.1270707 29.64124523 -9.87283952 30.39325402 -10.6412074 31.16805094 C-13.13200672 33.67475083 -15.63679371 36.16697335 -18.1418457 38.65942383 C-19.93484115 40.45784159 -21.726985 42.25710871 -23.51834106 44.05715942 C-27.8745696 48.42971872 -32.24005799 52.79283808 -36.61025921 57.15142701 C-40.16246689 60.69458746 -43.71073445 64.24164949 -47.25624657 67.79150963 C-47.76157465 68.29745065 -48.26690274 68.80339167 -48.7875438 69.32466423 C-49.81419747 70.35259685 -50.84084219 71.38053842 -51.86747804 72.40848883 C-61.48519736 82.037603 -71.11511903 91.6544385 -80.74928459 101.26709392 C-89.0109641 109.51089803 -97.2620925 117.76514074 -105.50561523 126.02709961 C-115.08631341 135.62921448 -124.67348067 145.22479348 -134.27103108 154.8100664 C-135.2947978 155.83255896 -136.31855618 156.85505986 -137.34230614 157.8775692 C-137.84597338 158.38061934 -138.34964062 158.88366948 -138.86857051 159.40196357 C-142.41317718 162.94312015 -145.95312855 166.48888958 -149.49129677 170.03647804 C-154.25476077 174.8123459 -159.02873339 179.57745994 -163.8099556 184.33555984 C-165.56335376 186.08366744 -167.31335403 187.83519081 -169.05969429 189.5903492 C-171.44325084 191.98482969 -173.83877673 194.36665868 -176.23774719 196.74568176 C-176.92667236 197.44352982 -177.61559753 198.14137787 -178.32539922 198.86037284 C-182.84162699 203.30400637 -186.86837145 206.27088908 -193.2578125 207.3984375 C-197.68970451 207.34280706 -200.451056 206.661708 -204 204 C-202.61923245 200.8983764 -201.03073859 198.78034006 -198.63601685 196.38433456 C-197.93658903 195.67969126 -197.23716122 194.97504795 -196.51653862 194.24905181 C-195.36003901 193.09924437 -195.36003901 193.09924437 -194.18017578 191.9262085 C-193.36316759 191.10608032 -192.5461594 190.28595215 -191.70439339 189.44097161 C-189.43607019 187.1660462 -187.16330756 184.89566688 -184.88858891 182.62713957 C-182.43643904 180.17950955 -179.99004473 177.72613853 -177.54290771 175.27349854 C-172.7487717 170.47046269 -167.94923627 165.6728575 -163.14775229 160.87716839 C-159.24730945 156.98123866 -155.34881866 153.08336568 -151.45172119 149.18408966 C-150.89749737 148.62955937 -150.34327355 148.07502908 -149.77225506 147.50369485 C-148.64646511 146.37726546 -147.52067966 145.25083158 -146.39489865 144.12439325 C-135.83547786 133.55926771 -125.26993227 123.0002843 -114.70228887 112.4433842 C-105.62682315 103.37685907 -96.55662102 94.30509593 -87.49023438 85.22949219 C-76.96851309 74.69707934 -66.44356977 64.16790374 -55.91342735 53.64390969 C-54.79170697 52.52282643 -53.66999077 51.40173897 -52.54827881 50.28064728 C-51.99632815 49.72900518 -51.4443775 49.17736307 -50.87570107 48.60900454 C-46.97845627 44.71348966 -43.08354342 40.81565245 -39.18951416 36.91692352 C-34.44823437 32.17004747 -29.70343424 27.42672487 -24.95401812 22.68798897 C-22.5290089 20.26825268 -20.10565729 17.84691409 -17.68657684 15.42124939 C-15.0689008 12.79815423 -12.44521761 10.18122451 -9.81982422 7.56585693 C-9.04882448 6.79039575 -8.27782475 6.01493457 -7.48346138 5.21597457 C-6.78403357 4.52176225 -6.08460575 3.82754993 -5.36398315 3.11230087 C-4.75827421 2.50691664 -4.15256527 1.9015324 -3.52850151 1.27780318 C-2 0 -2 0 0 0 Z " fill="#F04C3B" transform="translate(359,155)"/>
<path d="M0 0 C9.13358543 4.23052057 14.90408033 20.62737082 18.17431641 29.41552734 C24.08966455 48.69748673 21.38584529 68.84609768 12.85009766 86.85693359 C11.58826945 88.9214342 10.24748966 90.87880726 8.85009766 92.85693359 C3.73622983 88.51647994 -1.31989342 84.13382483 -6.21240234 79.54443359 C-7.26331055 78.62500977 -7.26331055 78.62500977 -8.33544922 77.68701172 C-10.30398941 75.81193337 -11.83088832 74.23725272 -13.14990234 71.85693359 C-13.15796931 68.57670148 -12.28973004 65.90497004 -11.14990234 62.85693359 C-8.43292209 50.0871264 -10.46150346 38.02417101 -17.14990234 26.85693359 C-18.32552734 25.43380859 -18.32552734 25.43380859 -19.52490234 23.98193359 C-21.14990234 21.85693359 -21.14990234 21.85693359 -20.99487305 19.99682617 C-19.15684404 15.34200842 -14.82339559 12.01962593 -11.33740234 8.54443359 C-10.10666992 7.27116211 -10.10666992 7.27116211 -8.85107422 5.97216797 C-7.65901367 4.77624023 -7.65901367 4.77624023 -6.44287109 3.55615234 C-5.71608154 2.82227295 -4.98929199 2.08839355 -4.24047852 1.33227539 C-2.14990234 -0.14306641 -2.14990234 -0.14306641 0 0 Z " fill="#F04B3A" transform="translate(401.14990234375,113.14306640625)"/>
<path d="M0 0 C3.46629835 1.48653506 5.69022036 3.45722351 8.328125 6.1328125 C9.12734375 6.93847656 9.9265625 7.74414062 10.75 8.57421875 C11.575 9.41597656 12.4 10.25773438 13.25 11.125 C14.09046875 11.97449219 14.9309375 12.82398438 15.796875 13.69921875 C17.86915683 15.79504923 19.93662393 17.89540713 22 20 C19.69909822 25.24208645 15.60507793 28.80267066 11.625 32.8125 C10.85671875 33.61365234 10.0884375 34.41480469 9.296875 35.24023438 C8.55179687 35.99240234 7.80671875 36.74457031 7.0390625 37.51953125 C6.36053223 38.21151611 5.68200195 38.90350098 4.98291016 39.61645508 C3 41 3 41 1.03173828 40.98339844 C-1.7005477 39.66092212 -3.42218571 37.91385106 -5.546875 35.74609375 C-6.39121094 34.89208984 -7.23554688 34.03808594 -8.10546875 33.15820312 C-8.97816406 32.26037109 -9.85085938 31.36253906 -10.75 30.4375 C-11.63816406 29.53580078 -12.52632813 28.63410156 -13.44140625 27.70507812 C-15.63448315 25.47662902 -17.82026044 23.24148407 -20 21 C-15.76183463 15.93376232 -11.32591037 11.19961931 -6.625 6.5625 C-5.98433594 5.92634766 -5.34367187 5.29019531 -4.68359375 4.63476562 C-3.12469121 3.08749668 -1.56348584 1.54263508 0 0 Z " fill="#F04C3B" transform="translate(367,208)"/>
<path d="M0 0 C5.06623768 4.23816537 9.80038069 8.67408963 14.4375 13.375 C15.07365234 14.01566406 15.70980469 14.65632813 16.36523438 15.31640625 C17.91250332 16.87530879 19.45736492 18.43651416 21 20 C19.51346494 23.46629835 17.54277649 25.69022036 14.8671875 28.328125 C14.06152344 29.12734375 13.25585938 29.9265625 12.42578125 30.75 C11.58402344 31.575 10.74226563 32.4 9.875 33.25 C9.02550781 34.09046875 8.17601562 34.9309375 7.30078125 35.796875 C5.20495077 37.86915683 3.10459287 39.93662393 1 42 C-4.06623768 37.76183463 -8.80038069 33.32591037 -13.4375 28.625 C-14.39172852 27.66400391 -14.39172852 27.66400391 -15.36523438 26.68359375 C-16.91250332 25.12469121 -18.45736492 23.56348584 -20 22 C-18.51346494 18.53370165 -16.54277649 16.30977964 -13.8671875 13.671875 C-12.65869141 12.47304688 -12.65869141 12.47304688 -11.42578125 11.25 C-10.58402344 10.425 -9.74226563 9.6 -8.875 8.75 C-8.02550781 7.90953125 -7.17601562 7.0690625 -6.30078125 6.203125 C-4.20495077 4.13084317 -2.10459287 2.06337607 0 0 Z " fill="#F04A39" transform="translate(410,250)"/>
</svg>
