<?xml version="1.0" encoding="UTF-8"?>
<svg version="1.1" xmlns="http://www.w3.org/2000/svg" width="512" height="512">
<path d="M0 0 C2.54409137 1.96534072 4.95455651 4.01357233 7.34765625 6.16015625 C8.25386719 6.97226563 9.16007812 7.784375 10.09375 8.62109375 C25.82635426 23.50269722 37.13780879 45.143023 38.5246582 66.94238281 C39.19252447 98.09528429 32.94507295 120.80743992 11.34765625 144.16015625 C7.73143396 147.92353331 4.0571698 151.62800364 0.37451172 155.32617188 C-0.69622769 156.40483761 -1.76679446 157.48367475 -2.83720398 158.56266785 C-6.31619101 162.06756533 -9.80034694 165.56729901 -13.28515625 169.06640625 C-14.49489538 170.28151632 -15.70463123 171.49662967 -16.91436386 172.71174622 C-21.95143972 177.77039812 -26.98993682 182.82762739 -32.03215218 187.88115692 C-39.20881154 195.07403953 -46.37684714 202.27527508 -53.53307831 209.48848391 C-58.59465417 214.58895645 -63.66596349 219.67962365 -68.74439132 224.76331663 C-71.76410567 227.7866551 -74.77963354 230.81388917 -77.78473282 233.85176086 C-100.59238239 256.89587403 -122.59118816 274.84207569 -156.47875977 275.58178711 C-181.14585692 275.69612508 -203.95061985 268.93539512 -222.65234375 252.16015625 C-223.55855469 251.34804688 -224.46476562 250.5359375 -225.3984375 249.69921875 C-241.15127101 234.79848026 -252.49206956 213.10383296 -253.8293457 191.27026367 C-254.46175083 160.26225619 -248.17401194 137.43096771 -226.65234375 114.16015625 C-223.03612146 110.39677919 -219.3618573 106.69230886 -215.67919922 102.99414062 C-214.60845981 101.91547489 -213.53789304 100.83663775 -212.46748352 99.75764465 C-208.98849649 96.25274717 -205.50434056 92.75301349 -202.01953125 89.25390625 C-200.80979212 88.03879618 -199.60005627 86.82368283 -198.39032364 85.60856628 C-193.35324778 80.54991438 -188.31475068 75.49268511 -183.27253532 70.43915558 C-176.09587596 63.24627297 -168.92784036 56.04503742 -161.77160919 48.83182859 C-156.71003333 43.73135605 -151.63872401 38.64068885 -146.56029618 33.55699587 C-143.54058183 30.5336574 -140.52505396 27.50642333 -137.51995468 24.46855164 C-99.7217366 -13.72125655 -49.21331202 -34.13765826 0 0 Z " fill="#E0DEDE" transform="translate(363.65234375,126.83984375)"/>
<path d="M0 0 C2.49516408 1.93100711 4.85677033 3.94197132 7.19921875 6.0546875 C7.88371094 6.64636719 8.56820312 7.23804688 9.2734375 7.84765625 C22.60701374 20.13340725 31.47495844 39.09878368 32.484375 57.12890625 C33.12789786 77.20911765 27.14017662 94.46678363 16.19921875 111.0546875 C12.51851988 109.51824898 10.21146671 107.27317805 7.44921875 104.4296875 C6.65 103.61242187 5.85078125 102.79515625 5.02734375 101.953125 C4.4240625 101.32664062 3.82078125 100.70015625 3.19921875 100.0546875 C4.48881036 96.69699506 5.95182198 93.54277175 7.63671875 90.3671875 C15.06305956 75.68975876 16.43758838 59.90280805 11.390625 44.26953125 C5.4717545 28.29828397 -4.87038112 16.51668205 -20.30078125 9.1796875 C-35.76163112 2.2162724 -51.85838434 2.15914028 -67.80078125 8.0546875 C-80.79072487 14.06681968 -90.43178846 24.53854011 -100.44775391 34.50878906 C-101.47055292 35.52366023 -102.49352258 36.53835945 -103.51664734 37.55290222 C-106.83635063 40.84672148 -110.15091322 44.14568676 -113.46484375 47.4453125 C-114.61561149 48.59070897 -115.76638234 49.73610232 -116.91715622 50.88149261 C-121.70644779 55.6492157 -126.49432127 60.4183554 -131.2784977 65.1912117 C-138.09003618 71.98651327 -144.90993442 78.77316974 -151.7417618 85.54807496 C-156.57212247 90.33957727 -161.39271177 95.14077507 -166.20631635 99.94910979 C-169.06974716 102.80891247 -171.93708606 105.66450035 -174.81502151 108.50971222 C-177.52339926 111.18772285 -180.21931177 113.87771073 -182.90670204 116.5767765 C-184.34712374 118.0175193 -185.79982375 119.44595505 -187.25306702 120.87376404 C-200.23820396 133.98164269 -208.11576464 149.41442578 -208.04296875 168.12524414 C-207.74737673 183.49418184 -200.90921173 198.97423953 -190.140625 209.9453125 C-177.08076876 221.7188056 -162.11854691 226.73484058 -144.73828125 226.30859375 C-139.41740395 225.96548162 -134.79898372 224.85310615 -129.80078125 223.0546875 C-128.97320312 222.78785156 -128.145625 222.52101563 -127.29296875 222.24609375 C-112.50961985 217.03253027 -102.05758678 204.71158677 -91.3203125 193.8671875 C-89.65517513 192.19644527 -87.98936703 190.52637128 -86.32292175 188.85693359 C-81.96802308 184.49065629 -77.62221493 180.11544164 -73.27832031 175.73822021 C-68.83234135 171.26138903 -64.37771043 166.79318471 -59.92382812 162.32421875 C-51.20771877 153.57606861 -42.50120096 144.81843991 -33.80078125 136.0546875 C-30.16775041 137.75054876 -27.85529079 139.79269238 -25.05078125 142.6796875 C-23.85195313 143.90558594 -23.85195313 143.90558594 -22.62890625 145.15625 C-22.025625 145.78273438 -21.42234375 146.40921875 -20.80078125 147.0546875 C-25.02897839 152.09330239 -29.43397501 156.85037618 -34.06860352 161.51538086 C-35.12124138 162.58028496 -35.12124138 162.58028496 -36.19514465 163.66670227 C-38.4994666 165.99566684 -40.80775853 168.32063124 -43.1171875 170.64453125 C-43.91186872 171.44453615 -44.70654995 172.24454105 -45.52531242 173.06878853 C-49.73214672 177.30226202 -53.94259114 181.53211107 -58.15551758 185.75952148 C-61.62190174 189.23923508 -65.08087852 192.72606164 -68.53344727 196.21948242 C-72.72424921 200.45984975 -76.92742408 204.68757764 -81.13953972 208.90677071 C-82.73241619 210.5063169 -84.32107078 212.11008003 -85.90518379 213.71830559 C-98.36733921 226.35926931 -109.65403793 235.45228622 -126.80078125 241.0546875 C-127.71859375 241.374375 -128.63640625 241.6940625 -129.58203125 242.0234375 C-148.30000288 247.70192327 -168.16893533 244.02826861 -185.20605469 235.25976562 C-190.95031723 232.14316723 -195.97530648 228.47004054 -200.80078125 224.0546875 C-201.82365234 223.16910156 -201.82365234 223.16910156 -202.8671875 222.265625 C-217.62134803 208.69526209 -225.36279035 188.36558993 -226.25634766 168.62451172 C-226.68777929 146.7068367 -218.06735773 128.28516444 -203.32186508 112.38097954 C-200.51556762 109.49034767 -197.68155435 106.63035144 -194.83349609 103.78100586 C-193.75121263 102.69108089 -192.66932515 101.60076259 -191.58779907 100.51008606 C-188.67497249 97.57550788 -185.75577902 94.64734879 -182.83461332 91.72107387 C-181.00291105 89.88570592 -179.17250814 88.04905184 -177.34251785 86.21197701 C-170.93862136 79.78365632 -164.52908659 73.36101395 -158.11474609 66.94311523 C-152.16692551 60.99166159 -146.23236625 55.02720484 -140.30370557 49.05667013 C-135.18620211 43.90431291 -130.05896063 38.76177875 -124.92434847 33.62647158 C-121.86971321 30.57104886 -118.81906264 27.51190545 -115.77842331 24.44254875 C-112.91500619 21.55268968 -110.03950724 18.67539061 -107.15490341 15.80668449 C-106.10824294 14.76181773 -105.06570351 13.71280068 -104.02803802 12.6590004 C-75.82276039 -15.95733856 -34.03490155 -23.63930401 0 0 Z " fill="#F26643" transform="translate(352.80078125,140.9453125)"/>
<path d="M0 0 C8.10920941 5.79229244 14.21206443 13.77756958 16.859375 23.484375 C18.55183609 35.4669995 18.23861417 46.53465822 12.25 57.25 C8.25 57.25 8.25 57.25 5.63671875 55.203125 C4.74597656 54.31109375 3.85523438 53.4190625 2.9375 52.5 C2.03386719 51.61828125 1.13023437 50.7365625 0.19921875 49.828125 C-1.75 47.25 -1.75 47.25 -1.5703125 45.3984375 C-1.29960937 44.68945312 -1.02890625 43.98046875 -0.75 43.25 C0.00418837 34.60070043 0.53372633 26.63881015 -4.8125 19.3125 C-10.03582659 13.7521846 -14.92172221 11.01552729 -22.67431641 10.55712891 C-33.44463303 10.26069817 -40.13231935 14.54689866 -47.90510559 21.89717102 C-49.76249879 23.73102498 -51.60744788 25.57324888 -53.44458008 27.42700195 C-54.47159111 28.44857994 -55.49944828 29.46930787 -56.52807617 30.48925781 C-59.2953452 33.23843349 -62.04998208 35.99993903 -64.80183625 38.76453424 C-67.69623743 41.66913337 -70.60046656 44.56388039 -73.50309753 47.46025085 C-78.37280198 52.32269973 -83.23406119 57.193472 -88.09057617 62.0690918 C-93.69083677 67.69112926 -99.30537747 73.29859597 -104.92752725 78.89873725 C-109.77168959 83.72470052 -114.60795466 88.55847398 -119.43780059 93.39876527 C-122.31490612 96.2820794 -125.19458051 99.16268839 -128.08143044 102.03624916 C-130.79517844 104.73837304 -133.49882312 107.45022825 -136.19524384 110.16963959 C-137.18140411 111.16105153 -138.17091458 112.14914505 -139.16413689 113.13348198 C-148.92742461 122.70444831 -148.92742461 122.70444831 -153.44921875 135.27734375 C-153.42347086 143.868558 -152.896234 150.70723478 -146.75 157.25 C-140.2500425 163.35602068 -133.41511715 163.94356713 -124.875 164.046875 C-116.0550748 163.01955857 -108.85237217 155.93854876 -102.91357422 149.86767578 C-102.2001033 149.15478897 -101.48663239 148.44190216 -100.75154114 147.70741272 C-98.4262981 145.37941211 -96.11549954 143.03763038 -93.8046875 140.6953125 C-92.18318045 139.06633483 -90.56078034 137.43824567 -88.93753052 135.81100464 C-84.69052478 131.54880752 -80.45567538 127.27473199 -76.22332764 122.99798584 C-71.89320558 118.6267708 -67.55158034 114.26701355 -63.2109375 109.90625 C-54.71272367 101.36527997 -46.22732061 92.81170442 -37.75 84.25 C-34.11696916 85.94586126 -31.80450954 87.98800488 -29 90.875 C-28.20078125 91.69226563 -27.4015625 92.50953125 -26.578125 93.3515625 C-25.97484375 93.97804688 -25.3715625 94.60453125 -24.75 95.25 C-28.88131239 100.1685929 -33.16735987 104.82462473 -37.69824219 109.37524414 C-38.36580536 110.04937851 -39.03336853 110.72351288 -39.72116089 111.41807556 C-41.91018222 113.62665323 -44.10306643 115.83133425 -46.296875 118.03515625 C-47.05117043 118.7935272 -47.80546585 119.55189816 -48.58261871 120.33325005 C-52.57229267 124.34370499 -56.56517949 128.35093031 -60.56054688 132.35571289 C-64.66873644 136.47497711 -68.76511055 140.60578715 -72.8589592 144.73929691 C-76.02658802 147.93314892 -79.20314555 151.11800828 -82.38211823 154.30056572 C-83.89562948 155.81892453 -85.40578271 157.34063887 -86.9123764 158.86586189 C-102.02250121 174.15121947 -102.02250121 174.15121947 -110.75 178.25 C-111.45243835 178.58995499 -112.15487671 178.92990997 -112.87860107 179.28016663 C-121.20095145 183.03724869 -134.0979415 182.72061755 -142.75 180.125 C-144.74609375 179.28125 -144.74609375 179.28125 -146.75 178.25 C-147.56597656 177.8478125 -148.38195312 177.445625 -149.22265625 177.03125 C-159.66535721 171.36100513 -165.69226991 163.30862064 -169.75 152.25 C-172.5091481 142.58369786 -172.01098723 129.36990217 -167.75 120.25 C-162.95554554 112.2855913 -156.7540566 105.81754728 -150.19995117 99.29589844 C-149.1505081 98.24073885 -148.1016929 97.18495449 -147.05345154 96.12860107 C-144.22974151 93.28708944 -141.39670193 90.45506335 -138.56121612 87.62530804 C-136.1852521 85.25245375 -133.81392245 82.87499431 -131.44252473 80.49757791 C-125.84470822 74.88576148 -120.23919037 69.28172269 -114.62866211 63.68261719 C-108.85983511 57.92527663 -103.10391774 52.15525899 -97.3542406 46.3787992 C-92.39735615 41.39970001 -87.43268414 36.42846108 -82.46175176 31.46338677 C-79.50158753 28.50657833 -76.54433058 25.54701175 -73.5945034 22.57988739 C-70.82006695 19.7898907 -68.03594839 17.00991888 -65.24437904 14.23706818 C-64.22757236 13.22392184 -63.21408658 12.20742868 -62.20439148 11.18719482 C-44.65961684 -6.5265183 -22.51857985 -13.80536051 0 0 Z " fill="#F26642" transform="translate(332.75,168.75)"/>
<path d="M0 0 C4.28816167 3.33872998 7.79434714 6.61459181 11.1015625 10.94921875 C9.36618127 12.81924163 7.615629 14.66909967 5.8515625 16.51171875 C5.36042969 17.04474609 4.86929687 17.57777344 4.36328125 18.12695312 C0.68220304 21.93073394 0.68220304 21.93073394 -1.984375 22.015625 C-4.36009081 20.69201191 -6.23412337 19.12688892 -8.2734375 17.32421875 C-23.3740951 5.03707523 -43.34084242 -0.8207725 -62.703125 0.71435547 C-72.51523695 1.76409431 -81.46910362 4.37682227 -90.3359375 8.69921875 C-90.94969238 8.99763672 -91.56344727 9.29605469 -92.19580078 9.60351562 C-102.58064896 15.0420064 -110.87352108 23.62164876 -119.08032227 31.82470703 C-120.16039529 32.89713829 -121.24086152 33.96917365 -122.32168579 35.04084778 C-125.22940406 37.92681703 -128.13070539 40.81915053 -131.03012204 43.71345758 C-132.8487392 45.52840877 -134.66864235 47.3420606 -136.48896599 49.15530014 C-142.85893155 55.50084242 -149.22321942 61.85202198 -155.58276367 68.20800781 C-161.47968624 74.10129737 -167.38961066 79.98132446 -173.30561405 85.85545361 C-178.41126374 90.9262472 -183.50708765 96.00678074 -188.59568638 101.09468448 C-191.62316389 104.12137461 -194.654359 107.14408068 -197.69577217 110.15677261 C-200.55936914 112.99392353 -203.41039872 115.84315929 -206.25284195 118.70149803 C-207.28803358 119.73848305 -208.32737382 120.771349 -209.37150002 121.79933739 C-225.31238987 137.50908177 -236.00482028 156.90082419 -236.3359375 179.69921875 C-236.22215962 198.85453681 -229.47955073 215.87642156 -217.8984375 230.94921875 C-217.29257813 231.48417969 -216.68671875 232.01914062 -216.0625 232.5703125 C-214.8984375 233.94921875 -214.8984375 233.94921875 -214.89453125 235.80859375 C-216.34656105 238.90475067 -218.50573573 240.83725249 -220.9609375 243.19921875 C-221.88003906 244.09125 -222.79914063 244.98328125 -223.74609375 245.90234375 C-224.81150391 246.91554688 -224.81150391 246.91554688 -225.8984375 247.94921875 C-242.21293251 235.80012672 -251.00379561 213.51477011 -253.8984375 193.94921875 C-255.51456152 167.56292905 -252.03606448 142.56625027 -234.07933235 121.85062408 C-228.21706796 115.30093434 -222.12663125 109.01065941 -215.92529297 102.78320312 C-214.85455356 101.70453739 -213.78398679 100.62570025 -212.71357727 99.54670715 C-209.23459024 96.04180967 -205.75043431 92.54207599 -202.265625 89.04296875 C-201.05588587 87.82785868 -199.84615002 86.61274533 -198.63641739 85.39762878 C-193.59934153 80.33897688 -188.56084443 75.28174761 -183.51862907 70.22821808 C-176.34196971 63.03533547 -169.17393411 55.83409992 -162.01770294 48.62089109 C-156.95612708 43.52041855 -151.88481776 38.42975135 -146.80638993 33.34605837 C-143.78667558 30.3227199 -140.77114771 27.29548583 -137.76604843 24.25761414 C-100.05189067 -13.84726286 -48.9913633 -34.66370045 0 0 Z " fill="#F1F0F0" transform="translate(363.8984375,127.05078125)"/>
<path d="M0 0 C2.0932744 1.58718323 4.03372137 3.25287317 6 5 C5.49517742 9.29475923 4.23082796 11.33731829 1.1875 14.375 C0.50042969 15.08398438 -0.18664062 15.79296875 -0.89453125 16.5234375 C-3 18 -3 18 -4.96875 17.90625 C-7.36619494 16.83662072 -9.48314082 15.55197647 -11.6875 14.125 C-22.7572209 7.46073966 -34.07802181 6.34633697 -46.8125 8.46875 C-57.84711276 11.77913383 -66.12319696 19.53343984 -74.04589844 27.51245117 C-75.11070472 28.57018411 -76.17634726 29.62707574 -77.24275208 30.68319702 C-80.11347603 33.53157684 -82.97151129 36.39236666 -85.82662106 39.25638747 C-88.2207598 41.65566612 -90.62111637 44.04867594 -93.02145505 46.44174939 C-98.68822663 52.09156969 -104.34472 57.7515332 -109.99462891 63.41821289 C-115.80350521 69.2440095 -121.62857578 75.0532366 -127.46204162 80.85440272 C-132.48970884 85.85529433 -137.50751759 90.86592818 -142.51758027 95.88445646 C-145.50131747 98.87309915 -148.48842589 101.858145 -151.48491669 104.83400536 C-154.30348996 107.63409564 -157.10943494 110.44627836 -159.90653038 113.26781845 C-160.92848684 114.29474278 -161.95461989 115.31753226 -162.98542976 116.33556938 C-172.76323157 126.00184446 -180.09729777 136.29583231 -180.38037109 150.45727539 C-180.35294702 162.16361481 -178.36553857 170.58217159 -171.07421875 180.02734375 C-170 182 -170 182 -170.09765625 183.984375 C-171.2623977 186.58613513 -172.76379688 188.27029492 -174.75 190.3125 C-175.42546875 191.03050781 -176.1009375 191.74851562 -176.796875 192.48828125 C-179 194 -179 194 -181.55078125 193.99609375 C-188.91749525 191.00006174 -192.79371228 179.97498631 -195.77734375 173.1484375 C-201.2090285 159.16141543 -200.15039599 143.92740219 -195 130 C-188.97069271 116.97294745 -178.4531118 107.30431257 -168.45410156 97.26123047 C-167.42937815 96.22857953 -166.40482684 95.19575778 -165.38043213 94.16278076 C-162.05414911 90.81060989 -158.7227165 87.4635833 -155.390625 84.1171875 C-154.23408446 82.95527583 -153.07754711 81.79336098 -151.92101288 80.63144302 C-147.10696694 75.79582797 -142.29150411 70.96163127 -137.47232437 66.13113213 C-130.61046043 59.25303103 -123.75724001 52.36656897 -116.91577172 45.46817863 C-112.07755935 40.59111054 -107.22965361 35.72381096 -102.37461066 30.86349785 C-99.48686314 27.97212182 -96.60333083 25.07683428 -93.7301712 22.17095566 C-91.02589403 19.43631614 -88.30964284 16.71413392 -85.58431244 14.00048065 C-84.59526112 13.01164764 -83.61035666 12.01864336 -82.63034058 11.02085495 C-59.21990119 -12.79030425 -28.72160875 -17.76225235 0 0 Z " fill="#F1EFEF" transform="translate(343,155)"/>
<path d="M0 0 C3.63303084 1.69586126 5.94549046 3.73800488 8.75 6.625 C9.94882812 7.85089844 9.94882812 7.85089844 11.171875 9.1015625 C11.77515625 9.72804688 12.3784375 10.35453125 13 11 C8.77180286 16.03861489 4.36680624 20.79568868 -0.26782227 25.46069336 C-0.96958084 26.17062943 -1.67133942 26.88056549 -2.3943634 27.61201477 C-4.69868535 29.94097934 -7.00697728 32.26594374 -9.31640625 34.58984375 C-10.50842809 35.7898511 -10.50842809 35.7898511 -11.72453117 37.01410103 C-15.93136547 41.24757452 -20.14180989 45.47742357 -24.35473633 49.70483398 C-27.82112049 53.18454758 -31.28009727 56.67137414 -34.73266602 60.16479492 C-38.92346796 64.40516225 -43.12664283 68.63289014 -47.33875847 72.85208321 C-48.93163494 74.4516294 -50.52028953 76.05539253 -52.10440254 77.66361809 C-64.56655796 90.30458181 -75.85325668 99.39759872 -93 105 C-93.9178125 105.3196875 -94.835625 105.639375 -95.78125 105.96875 C-114.50065424 111.64767039 -134.34979272 107.96810454 -151.39208984 99.21386719 C-165.91241097 91.34521181 -165.91241097 91.34521181 -169 84 C-167.4324482 82.2978302 -165.84540216 80.61359446 -164.25 78.9375 C-163.36828125 77.99777344 -162.4865625 77.05804688 -161.578125 76.08984375 C-159 74 -159 74 -156.984375 73.95703125 C-154.41750835 75.30615211 -152.27437377 76.9494541 -150 78.75 C-136.90918165 88.48956885 -122.94477115 91.02818465 -107 90 C-103.17395379 89.34478959 -99.64784175 88.31254119 -96 87 C-95.17242187 86.73316406 -94.34484375 86.46632813 -93.4921875 86.19140625 C-78.7088386 80.97784277 -68.25680553 68.65689927 -57.51953125 57.8125 C-55.85439388 56.14175777 -54.18858578 54.47168378 -52.5221405 52.80224609 C-48.16724183 48.43596879 -43.82143368 44.06075414 -39.47753906 39.68353271 C-35.0315601 35.20670153 -30.57692918 30.73849721 -26.12304688 26.26953125 C-17.40693752 17.52138111 -8.70041971 8.76375241 0 0 Z " fill="#F04C3B" transform="translate(319,277)"/>
<path d="M0 0 C2.85568245 1.65980099 4.67444157 2.88485467 6.1484375 5.8828125 C6.2265625 8.0078125 6.2265625 8.0078125 4.77734375 10.3671875 C-1.31605806 16.87532346 -1.31605806 16.87532346 -5.6953125 17.2734375 C-7.67469745 17.09908753 -9.65402184 16.92404832 -11.63327885 16.74825191 C-15.57692713 17.07422769 -16.72336428 18.16482574 -19.53160095 20.89515686 C-20.39480894 21.72170839 -21.25801693 22.54825993 -22.14738274 23.39985847 C-23.01398081 24.2604833 -23.88057888 25.12110813 -24.7734375 26.0078125 C-25.57519472 26.78600279 -26.37695194 27.56419308 -27.20300484 28.36596489 C-29.72345571 30.82831914 -32.21668694 33.31581077 -34.70532227 35.81030273 C-35.65077045 36.75439143 -36.59643024 37.69826825 -37.5422821 38.64195251 C-40.07705288 41.17221895 -42.60871666 43.7055717 -45.13963819 46.23968768 C-47.79885455 48.90145826 -50.46053524 51.5607629 -53.12181091 54.22047424 C-57.57917925 58.67603229 -62.03445453 63.13367505 -66.48852539 67.5925293 C-71.63891327 72.7483844 -76.7929297 77.90059126 -81.94879299 83.05097049 C-86.38733146 87.48497708 -90.82392614 91.92092152 -95.25888866 96.35850483 C-97.9030757 99.0042508 -100.54793378 101.64931643 -103.19455147 104.29263115 C-106.13459892 107.229264 -109.07055857 110.1699503 -112.00610352 113.11108398 C-113.32365128 114.4255954 -113.32365128 114.4255954 -114.66781616 115.7666626 C-115.46249802 116.56416428 -116.25717987 117.36166595 -117.07594299 118.18333435 C-117.76997003 118.87773841 -118.46399706 119.57214247 -119.17905521 120.28758907 C-120.85195238 121.93150171 -120.85195238 121.93150171 -121.7734375 124.0078125 C-121.61141506 125.86239076 -121.44390382 127.7164913 -121.2734375 129.5703125 C-121.19491146 134.98860935 -122.26685733 137.41641546 -126.0234375 141.3203125 C-128.4140625 143.55859375 -128.4140625 143.55859375 -130.7734375 145.0078125 C-133.31479431 144.91438026 -134.34910829 144.37519227 -136.2578125 142.72265625 C-140.5628535 136.67699681 -141.10579372 129.39896463 -140.30929852 122.14661694 C-137.96832367 112.80298635 -130.0946088 105.7528981 -123.50463867 99.22143555 C-122.47320853 98.18457254 -121.44262846 97.14686333 -120.41282654 96.10838318 C-117.63679376 93.31425493 -114.84842706 90.53275992 -112.05697417 87.75404716 C-109.12434841 84.83161824 -106.2015734 81.89936252 -103.2771759 78.96870422 C-98.36764897 74.05192139 -93.4497973 69.14358396 -88.52709961 64.23999023 C-82.85053108 58.58519851 -77.18853176 52.91612543 -71.53385943 47.23944443 C-66.66118714 42.34857387 -61.78070524 37.46559917 -56.89370519 32.58904487 C-53.98244538 29.68399412 -51.07389116 26.77637277 -48.17238426 23.86157799 C-45.44399561 21.1215664 -42.70587611 18.39165413 -39.96019936 15.66897011 C-38.95911172 14.67313477 -37.96134385 13.67394822 -36.96733093 12.67105103 C-26.3998906 2.01796173 -15.47093159 -5.5346713 0 0 Z " fill="#F1F0EF" transform="translate(318.7734375,179.9921875)"/>
<path d="M0 0 C2.5 1.5 2.5 1.5 4 4 C4.7727341 7.44758292 5.0150645 8.74833497 4 12 C2.29975033 14.26235104 2.29975033 14.26235104 0.06761169 16.6469574 C-0.75165361 17.52543776 -1.57091892 18.40391811 -2.41501045 19.30901909 C-6.53036639 23.59311543 -10.68883156 27.82799385 -14.89428711 32.02368164 C-15.84822793 32.97898188 -16.80195686 33.93449375 -17.75549316 34.89019775 C-20.31261782 37.45182753 -22.87282986 40.01034947 -25.43380427 42.56812978 C-28.12360189 45.25537353 -30.81093397 47.94508122 -33.49867249 50.63438416 C-38.0013089 55.13883099 -42.50603036 59.64118453 -47.01196289 64.14233398 C-52.22234941 69.34725354 -57.42908815 74.55580136 -62.63399881 79.76619631 C-67.11471415 84.25144349 -71.59736733 88.73474696 -76.08165938 93.21641821 C-78.75535103 95.88855088 -81.42836227 98.56135477 -84.09962273 101.23591805 C-87.06738856 104.20709842 -90.03920794 107.17419125 -93.01147461 110.14086914 C-93.89716629 111.02858505 -94.78285797 111.91630096 -95.69538879 112.83091736 C-96.50130463 113.63401337 -97.30722046 114.43710937 -98.13755798 115.26454163 C-98.83933639 115.965943 -99.54111479 116.66734438 -100.2641592 117.39000034 C-103.31713876 120.22165175 -105.88894026 120.35222119 -110.0234375 120.26953125 C-112 120 -112 120 -114.5 118.5 C-116.19410134 115.67649776 -116.75202661 113.42139901 -116.57009506 110.11866188 C-115.87663209 107.54152402 -114.86567899 106.3146195 -113.065979 104.35140991 C-112.42825813 103.65447399 -111.79053726 102.95753807 -111.13349152 102.23948288 C-107.23169661 98.1438477 -103.26122461 94.12268639 -99.25683594 90.12744141 C-98.29495993 89.16420722 -97.33329609 88.20076112 -96.37182617 87.23712158 C-93.78353357 84.64430721 -91.19213297 82.05462096 -88.59998608 79.46566057 C-85.87995145 76.74817323 -83.162375 74.02822933 -80.44439697 71.3086853 C-75.886927 66.74940207 -71.32736581 62.19221819 -66.76660156 57.63623047 C-61.4949335 52.37001975 -56.22689947 47.1001943 -50.96070647 41.82850897 C-46.42991203 37.2931788 -41.89717472 32.75979731 -37.36280274 28.22804391 C-34.65830966 25.52510896 -31.95449482 22.82150486 -29.25243378 20.11613846 C-26.71674686 17.5775656 -24.17863135 15.04144634 -21.63861084 12.50720978 C-20.26231212 11.13286544 -18.88847623 9.75605615 -17.51470947 8.37918091 C-16.6961145 7.56340576 -15.87751953 6.74763062 -15.03411865 5.90713501 C-14.32329006 5.19668344 -13.61246147 4.48623188 -12.88009262 3.75425148 C-8.83039464 -0.02438612 -5.40237065 -0.84785696 0 0 Z " fill="#F26846" transform="translate(312,196)"/>
<path d="M0 0 C3.63303084 1.69586126 5.94549046 3.73800488 8.75 6.625 C9.94882812 7.85089844 9.94882812 7.85089844 11.171875 9.1015625 C11.77515625 9.72804688 12.3784375 10.35453125 13 11 C8.86868761 15.9185929 4.58264013 20.57462473 0.05175781 25.12524414 C-0.61580536 25.79937851 -1.28336853 26.47351288 -1.97116089 27.16807556 C-4.16018222 29.37665323 -6.35306643 31.58133425 -8.546875 33.78515625 C-9.30117043 34.5435272 -10.05546585 35.30189816 -10.83261871 36.08325005 C-14.82229267 40.09370499 -18.81517949 44.10093031 -22.81054688 48.10571289 C-26.91873644 52.22497711 -31.01511055 56.35578715 -35.1089592 60.48929691 C-38.27658802 63.68314892 -41.45314555 66.86800828 -44.63211823 70.05056572 C-46.14562948 71.56892453 -47.65578271 73.09063887 -49.1623764 74.61586189 C-64.27250121 89.90121947 -64.27250121 89.90121947 -73 94 C-73.70243835 94.33995499 -74.40487671 94.67990997 -75.12860107 95.03016663 C-83.45095145 98.78724869 -96.3479415 98.47061755 -105 95.875 C-106.96875 95.05078125 -106.96875 95.05078125 -109 94 C-109.8971875 93.53980469 -110.794375 93.07960938 -111.71875 92.60546875 C-118.51875269 88.83299535 -118.51875269 88.83299535 -120.07421875 86.140625 C-119.95152782 82.60196034 -117.76043412 81.10051352 -115.3125 78.6875 C-114.42175781 77.78386719 -113.53101563 76.88023437 -112.61328125 75.94921875 C-110 74 -110 74 -107.83984375 74.078125 C-106 75 -106 75 -103.25 77.0625 C-99.41883635 79.30493056 -95.53335188 79.51508743 -91.1875 79.625 C-89.88167969 79.65851563 -88.57585937 79.69203125 -87.23046875 79.7265625 C-78.35218816 78.88596518 -71.11099645 71.69736484 -65.16357422 65.61767578 C-64.4501033 64.90478897 -63.73663239 64.19190216 -63.00154114 63.45741272 C-60.6762981 61.12941211 -58.36549954 58.78763038 -56.0546875 56.4453125 C-54.43318045 54.81633483 -52.81078034 53.18824567 -51.18753052 51.56100464 C-46.94052478 47.29880752 -42.70567538 43.02473199 -38.47332764 38.74798584 C-34.14320558 34.3767708 -29.80158034 30.01701355 -25.4609375 25.65625 C-16.96272367 17.11527997 -8.47732061 8.56170442 0 0 Z " fill="#F04B3A" transform="translate(295,253)"/>
<path d="M0 0 C9.77348411 4.10832297 15.13299686 16.66342059 19.15429688 25.90771484 C27.05484479 45.45381635 25.38246992 66.40160801 17.5390625 85.76953125 C14.82295178 91.47060629 11.47479854 96.73175705 8 102 C4.31930113 100.46356148 2.01224796 98.21849055 -0.75 95.375 C-1.54921875 94.55773437 -2.3484375 93.74046875 -3.171875 92.8984375 C-3.77515625 92.27195312 -4.3784375 91.64546875 -5 91 C-3.71040839 87.64230756 -2.24739677 84.48808425 -0.5625 81.3125 C6.86510588 66.63257098 8.2315722 50.8558081 3.1953125 35.21875 C0.03956921 26.72093145 -4.18174331 19.94166648 -10 13 C-8.60366893 9.81440048 -6.95442507 7.76056155 -4.4375 5.375 C-1.85984611 2.95478041 -1.85984611 2.95478041 0 0 Z " fill="#F04C3C" transform="translate(361,150)"/>
<path d="M0 0 C0.99 0.33 1.98 0.66 3 1 C3.52336223 4.14017336 3.71568171 5.94833289 3 9 C1.32416439 11.2867651 1.32416439 11.2867651 -0.91676331 13.6625824 C-1.73828447 14.5388069 -2.55980564 15.41503139 -3.40622139 16.31780815 C-7.53554081 20.58788226 -11.68905869 24.82822044 -15.89428711 29.02368164 C-16.84822793 29.97898188 -17.80195686 30.93449375 -18.75549316 31.89019775 C-21.31261782 34.45182753 -23.87282986 37.01034947 -26.43380427 39.56812978 C-29.12360189 42.25537353 -31.81093397 44.94508122 -34.49867249 47.63438416 C-39.0013089 52.13883099 -43.50603036 56.64118453 -48.01196289 61.14233398 C-53.22234941 66.34725354 -58.42908815 71.55580136 -63.63399881 76.76619631 C-68.11471415 81.25144349 -72.59736733 85.73474696 -77.08165938 90.21641821 C-79.75535103 92.88855088 -82.42836227 95.56135477 -85.09962273 98.23591805 C-88.06738856 101.20709842 -91.03920794 104.17419125 -94.01147461 107.14086914 C-94.89716629 108.02858505 -95.78285797 108.91630096 -96.69538879 109.83091736 C-97.50130463 110.63401337 -98.30722046 111.43710937 -99.13755798 112.26454163 C-99.83933639 112.965943 -100.54111479 113.66734438 -101.2641592 114.39000034 C-104.93555524 117.79523565 -108.19843469 117.0774446 -113 117 C-113 113 -113 113 -111.23523712 110.74304581 C-109.98528584 109.49862528 -109.98528584 109.49862528 -108.71008301 108.22906494 C-108.01792088 107.53177627 -108.01792088 107.53177627 -107.31177568 106.82040095 C-105.75952453 105.26154896 -104.19338475 103.7174439 -102.62695312 102.17285156 C-101.51280789 101.05983433 -100.39954213 99.94593612 -99.28709412 98.83122253 C-96.26095968 95.80393818 -93.22263078 92.78916388 -90.18201256 89.77643681 C-87.00781185 86.62720328 -83.84489892 83.46667513 -80.68078613 80.30731201 C-74.68575593 74.32472534 -68.68060013 68.3524099 -62.67176676 62.3836906 C-55.83211063 55.58870924 -49.00377885 48.78239665 -42.17638874 41.97509432 C-28.13018312 27.97072422 -14.06977141 13.98069143 0 0 Z " fill="#F04E3E" transform="translate(313,199)"/>
<path d="M0 0 C2.58360479 1.41938782 3.48838753 2.9984024 4.9609375 5.54296875 C5.44691406 6.35765625 5.93289063 7.17234375 6.43359375 8.01171875 C9.84706138 15.0753211 11.45658533 21.5079339 11.3984375 29.35546875 C11.39779297 30.17635986 11.39714844 30.99725098 11.39648438 31.84301758 C11.22026046 39.08738365 9.4550188 44.67922863 5.8984375 51.04296875 C1.8984375 51.04296875 1.8984375 51.04296875 -0.71484375 48.99609375 C-1.60558594 48.1040625 -2.49632812 47.21203125 -3.4140625 46.29296875 C-4.31769531 45.41125 -5.22132813 44.52953125 -6.15234375 43.62109375 C-8.1015625 41.04296875 -8.1015625 41.04296875 -7.91796875 39.19921875 C-7.64855469 38.48765625 -7.37914062 37.77609375 -7.1015625 37.04296875 C-6.04552355 26.18929299 -6.04552355 26.18929299 -9.6640625 16.29296875 C-10.13972656 15.74125 -10.61539062 15.18953125 -11.10546875 14.62109375 C-12.1015625 13.04296875 -12.1015625 13.04296875 -12.0234375 11.140625 C-10.76204285 8.27041769 -8.9871253 6.45731143 -6.7890625 4.23046875 C-5.61923828 3.01423828 -5.61923828 3.01423828 -4.42578125 1.7734375 C-2.1015625 0.04296875 -2.1015625 0.04296875 0 0 Z " fill="#F04C3C" transform="translate(339.1015625,174.95703125)"/>
<path d="M0 0 C3.68069887 1.53643852 5.98775204 3.78150945 8.75 6.625 C9.54921875 7.44226563 10.3484375 8.25953125 11.171875 9.1015625 C11.77515625 9.72804688 12.3784375 10.35453125 13 11 C9.49102731 15.18423892 5.91939465 19.19588166 2 23 C-1.68069887 21.46356148 -3.98775204 19.21849055 -6.75 16.375 C-7.54921875 15.55773437 -8.3484375 14.74046875 -9.171875 13.8984375 C-9.77515625 13.27195312 -10.3784375 12.64546875 -11 12 C-7.49102731 7.81576108 -3.91939465 3.80411834 0 0 Z " fill="#F04C3B" transform="translate(343,253)"/>
<path d="M0 0 C3.68069887 1.53643852 5.98775204 3.78150945 8.75 6.625 C9.54921875 7.44226563 10.3484375 8.25953125 11.171875 9.1015625 C11.77515625 9.72804687 12.3784375 10.35453125 13 11 C9.49102731 15.18423892 5.91939465 19.19588166 2 23 C-1.68069887 21.46356148 -3.98775204 19.21849055 -6.75 16.375 C-7.54921875 15.55773437 -8.3484375 14.74046875 -9.171875 13.8984375 C-9.77515625 13.27195313 -10.3784375 12.64546875 -11 12 C-7.49102731 7.81576108 -3.91939465 3.80411834 0 0 Z " fill="#F04C3B" transform="translate(319,229)"/>
</svg>
